<svg width="256" height="256" viewBox="0 0 256 256" fill="none" xmlns="http://www.w3.org/2000/svg">
<path d="M208 137.986C208 187.978 173 212.974 131.4 227.471C129.222 228.209 126.855 228.174 124.7 227.371C83 212.974 48 187.978 48 137.986V67.9978C48 65.3461 49.0536 62.803 50.9289 60.9279C52.8043 59.0529 55.3478 57.9995 58 57.9995C78 57.9995 103 46.0015 120.4 30.804C122.519 28.9943 125.214 28 128 28C130.786 28 133.481 28.9943 135.6 30.804C153.1 46.1015 178 57.9995 198 57.9995C200.652 57.9995 203.196 59.0529 205.071 60.9279C206.946 62.803 208 65.3461 208 67.9978V137.986Z" stroke="#858585" stroke-width="28" stroke-linecap="round" stroke-linejoin="round"/>
<path d="M128 84V133.333L152 158" stroke="#858585" stroke-width="22" stroke-linecap="round" stroke-linejoin="round"/>
</svg>
